<svg width="56" height="71" viewBox="0 0 56 71" fill="none" xmlns="http://www.w3.org/2000/svg">
<path fill-rule="evenodd" clip-rule="evenodd" d="M27.7989 70.2797C42.5995 70.2797 54.5977 58.2862 54.5977 43.4915C54.5977 28.6968 42.5995 16.7033 27.7989 16.7033C12.9983 16.7033 1 28.6968 1 43.4915C1 58.2862 12.9983 70.2797 27.7989 70.2797Z" fill="white" fill-opacity="0.7" stroke="#EFC638"/>
<mask id="mask0" mask-type="alpha" maskUnits="userSpaceOnUse" x="6" y="0" width="45" height="51">
<path fill-rule="evenodd" clip-rule="evenodd" d="M50.1215 25.4203V0H6.2547V25.4203V50.8406H50.1215V25.4203Z" fill="white"/>
</mask>
<g mask="url(#mask0)">
<path fill-rule="evenodd" clip-rule="evenodd" d="M50.1215 21.8977C50.1215 40.7587 28.1881 50.8406 28.1881 50.8406C28.1881 50.8406 6.2547 40.1285 6.2547 21.8977C6.2547 9.80399 16.0747 0 28.1881 0C40.3016 0 50.1215 9.80399 50.1215 21.8977Z" fill="#F0C738"/>
<path fill-rule="evenodd" clip-rule="evenodd" d="M28.2169 27.1192C28.534 27.1192 28.7934 27.3782 28.7934 27.6947V30.0254L29.2833 29.9679C32.9724 29.4787 35.8546 26.5724 36.3446 22.9181L36.4021 22.429H34.0676C33.7507 22.429 33.4912 22.17 33.4912 21.8534C33.4912 21.5369 33.7507 21.278 34.0676 21.278H36.4021L36.3446 20.7888C35.8546 17.1057 32.9436 14.2282 29.2833 13.7391L28.7934 13.6527V15.9835C28.7934 16.3 28.534 16.5589 28.2169 16.5589C27.8999 16.5589 27.6404 16.3 27.6404 15.9835V13.6527L27.1505 13.7103C23.4614 14.1994 20.5792 17.1057 20.0892 20.76L20.0029 21.278H22.3374C22.6543 21.278 22.9138 21.5369 22.9138 21.8534C22.9138 22.17 22.6543 22.429 22.3374 22.429H20.0029L20.0604 22.9181C20.5504 26.6012 23.4614 29.4787 27.1217 29.9679L27.6116 30.0254V27.6947C27.6404 27.3782 27.8999 27.1192 28.2169 27.1192ZM28.2169 34.1689C27.8999 34.1689 27.6404 33.91 27.6404 33.5934V31.234L27.2658 31.2052C22.8849 30.7447 19.3399 27.2343 18.9076 22.8605L18.8211 22.429H16.4866C16.1696 22.429 15.9102 22.17 15.9102 21.8534C15.9102 21.5369 16.1696 21.278 16.4866 21.278H18.8499L18.8787 20.9039C19.3399 16.5301 22.8561 12.9909 27.237 12.5593L27.6116 12.5306V10.1423C27.6116 9.82573 27.871 9.56674 28.1881 9.56674C28.5052 9.56674 28.7646 9.82573 28.7646 10.1423V12.5018L29.1392 12.5306C33.5201 12.9909 37.0651 16.5013 37.4974 20.8751L37.5263 21.2492H39.8896C40.2065 21.2492 40.466 21.5081 40.466 21.8246C40.466 22.1412 40.2065 22.4002 39.8896 22.4002H37.5263L37.4974 22.7742C37.0363 27.148 33.5201 30.6872 29.1392 31.1188L28.7934 31.234V33.5934C28.7934 33.91 28.534 34.1689 28.2169 34.1689Z" fill="white"/>
</g>
</svg>
